<mxfile host="app.diagrams.net" agent="Mozilla/5.0 (Macintosh; Intel Mac OS X 10_15_7) AppleWebKit/605.1.15 (KHTML, like Gecko) Version/18.0.1 Safari/605.1.15" version="24.8.3">
  <diagram name="Page-1" id="ZSEqXpm7zEi85FjgitcW">
    <mxGraphModel dx="941" dy="659" grid="1" gridSize="10" guides="1" tooltips="1" connect="1" arrows="1" fold="1" page="1" pageScale="1" pageWidth="827" pageHeight="1169" math="0" shadow="0">
      <root>
        <mxCell id="0" />
        <mxCell id="1" parent="0" />
        <mxCell id="InnFcrdfFy9e5PUdxPg--1" value="Gemini Rollout: Training &amp;amp; Development Cycle" style="swimlane;childLayout=stackLayout;resizeParent=1;resizeParentMax=0;horizontal=1;startSize=20;horizontalStack=0;html=1;fontFamily=Outfit;fontSource=https%3A%2F%2Ffonts.googleapis.com%2Fcss%3Ffamily%3DOutfit;" vertex="1" parent="1">
          <mxGeometry x="40" y="190" width="790" height="380" as="geometry" />
        </mxCell>
        <mxCell id="InnFcrdfFy9e5PUdxPg--2" value="Lane 1" style="swimlane;startSize=20;horizontal=0;html=1;" vertex="1" parent="InnFcrdfFy9e5PUdxPg--1">
          <mxGeometry y="20" width="790" height="120" as="geometry" />
        </mxCell>
        <mxCell id="InnFcrdfFy9e5PUdxPg--3" value="Lane 2" style="swimlane;startSize=20;horizontal=0;html=1;" vertex="1" parent="InnFcrdfFy9e5PUdxPg--1">
          <mxGeometry y="140" width="790" height="120" as="geometry" />
        </mxCell>
        <mxCell id="InnFcrdfFy9e5PUdxPg--4" value="Lane 3" style="swimlane;startSize=20;horizontal=0;html=1;" vertex="1" parent="InnFcrdfFy9e5PUdxPg--1">
          <mxGeometry y="260" width="790" height="120" as="geometry" />
        </mxCell>
      </root>
    </mxGraphModel>
  </diagram>
</mxfile>
